<svg width="497" height="209" viewBox="0 0 497 209" fill="none" xmlns="http://www.w3.org/2000/svg">
<g clip-path="url(#clip0_1_1347)">
<mask id="path-1-inside-1_1_1347" fill="white">
<path d="M390.047 43.1588C390.047 97.2647 496.662 77.8873 496.662 149.106C496.662 185.344 463.525 209 425.542 209C398.43 209 375.247 200.947 362.542 190.126L360.708 140.046H363.721C370.663 178.298 394.762 204.596 426.066 204.596C454.357 204.596 471.514 186.602 471.514 162.569C471.514 98.6489 364.9 123.185 364.9 55.1124C364.9 24.4104 391.357 -0.125977 431.829 -0.125977C452.916 -0.125977 470.991 6.79455 486.97 16.6091V58.8873H484.219C478.194 25.0396 457.762 3.90051 430.65 3.90051C403.538 3.90051 389.916 22.1455 389.916 43.033"/>
</mask>
<path d="M362.542 190.126L361.343 190.17L361.362 190.697L361.764 191.039L362.542 190.126ZM360.708 140.046V138.846H359.464L359.509 140.09L360.708 140.046ZM363.721 140.046L364.902 139.832L364.723 138.846H363.721V140.046ZM486.97 16.6091H488.17V15.9379L487.598 15.5866L486.97 16.6091ZM486.97 58.8873V60.0873H488.17V58.8873H486.97ZM484.219 58.8873L483.038 59.0976L483.214 60.0873H484.219V58.8873ZM388.847 43.1588C388.847 57.1877 395.805 66.4518 406.024 73.5112C416.158 80.5121 429.656 85.4486 442.903 90.8269C456.238 96.2407 469.378 102.12 479.198 111.005C488.955 119.833 495.462 131.658 495.462 149.106H497.862C497.862 130.944 491.042 118.484 480.808 109.225C470.638 100.022 457.125 94.0107 443.806 88.6032C430.4 83.1603 417.244 78.3452 407.388 71.5365C397.616 64.7863 391.247 56.1828 391.247 43.1588H388.847ZM495.462 149.106C495.462 184.447 463.124 207.8 425.542 207.8V210.2C463.926 210.2 497.862 186.241 497.862 149.106H495.462ZM425.542 207.8C398.624 207.8 375.747 199.797 363.32 189.212L361.764 191.039C374.746 202.097 398.235 210.2 425.542 210.2V207.8ZM363.741 190.082L361.908 140.002L359.509 140.09L361.343 190.17L363.741 190.082ZM360.708 141.246H363.721V138.846H360.708V141.246ZM362.54 140.26C369.54 178.832 393.96 205.796 426.066 205.796V203.396C395.564 203.396 371.785 177.763 364.902 139.832L362.54 140.26ZM426.066 205.796C440.47 205.796 452.146 201.211 460.23 193.461C468.314 185.71 472.714 174.88 472.714 162.569H470.314C470.314 174.292 466.136 184.475 458.569 191.729C451 198.984 439.953 203.396 426.066 203.396V205.796ZM472.714 162.569C472.714 146.173 465.842 135.388 455.591 127.437C445.429 119.555 431.915 114.441 418.642 109.28C405.279 104.083 392.143 98.8336 382.323 90.7075C372.583 82.6475 366.1 71.7477 366.1 55.1124H363.7C363.7 72.5136 370.543 84.074 380.793 92.5565C390.964 100.973 404.481 106.348 417.772 111.516C431.152 116.72 444.293 121.711 454.12 129.334C463.86 136.888 470.314 147.005 470.314 162.569H472.714ZM366.1 55.1124C366.1 25.2435 391.835 1.07402 431.829 1.07402V-1.32598C390.878 -1.32598 363.7 23.5773 363.7 55.1124H366.1ZM431.829 1.07402C452.636 1.07402 470.495 7.89872 486.342 17.6316L487.598 15.5866C471.486 5.69039 453.195 -1.32598 431.829 -1.32598V1.07402ZM485.77 16.6091V58.8873H488.17V16.6091H485.77ZM486.97 57.6873H484.219V60.0873H486.97V57.6873ZM485.401 58.677C479.313 24.4792 458.544 2.70051 430.65 2.70051V5.10051C456.98 5.10051 477.075 25.6 483.038 59.0976L485.401 58.677ZM430.65 2.70051C416.81 2.70051 406.296 7.36593 399.245 14.8087C392.207 22.238 388.716 32.3329 388.716 43.033H391.116C391.116 32.8456 394.436 23.3743 400.987 16.4592C407.525 9.55761 417.378 5.10051 430.65 5.10051V2.70051Z" fill="#8B3C50" mask="url(#path-1-inside-1_1_1347)"/>
<path d="M28.6108 43.1589C28.6108 56.9367 35.4213 66.0356 45.5283 73.0177C54.2125 79.0169 65.3891 83.4923 76.8269 88.0725C78.6452 88.8005 80.47 89.5313 82.2924 90.2712C95.6231 95.6833 108.857 101.595 118.764 110.56C128.641 119.496 135.225 131.48 135.225 149.106C135.225 184.896 102.488 208.4 64.7054 208.4C37.8337 208.4 14.9052 200.457 2.29564 189.839L0.494441 140.646H2.51566C9.60387 178.793 33.7916 205.196 65.3602 205.196C79.635 205.196 91.1543 200.654 99.1089 193.028C107.064 185.402 111.409 174.734 111.409 162.571C111.442 146.413 104.69 135.818 94.5731 127.984C84.8335 120.443 71.9604 115.452 59.0887 110.461C58.6483 110.29 58.208 110.12 57.7678 109.949C44.415 104.767 31.1711 99.4903 21.2535 91.2935C11.3758 83.1298 4.79429 72.0649 4.79429 55.2384C4.79429 25.0787 31.0218 0.6 71.1232 0.6C91.9453 0.6 109.822 7.39058 125.664 17.0712V58.4132H124.015C117.848 24.6774 97.3137 3.42649 69.9444 3.42649C56.2465 3.42649 45.8975 8.03983 38.975 15.3473C32.0588 22.6481 28.6108 32.587 28.6108 43.1589Z" stroke="#8B3C50" stroke-width="1.2"/>
<mask id="path-4-inside-2_1_1347" fill="white">
<path d="M231.043 86.3175C247.415 80.152 251.344 70.589 251.344 57.8804C251.344 46.6818 245.581 36.7414 233.007 36.7414C222.267 36.7414 214.671 44.1652 214.671 57.2513C214.671 70.3374 223.708 78.2645 229.078 84.4301L231.043 86.4433V86.3175ZM262.084 139.92C260.119 138.033 258.155 135.894 255.797 133.503L216.635 92.6089C207.074 97.8937 203.014 107.708 203.014 118.529C203.014 137.655 216.897 149.735 235.365 149.735C245.712 149.735 255.011 145.96 262.215 139.92M264.573 142.311C255.535 151.119 243.354 156.781 227.899 156.781C207.205 156.781 187.166 145.079 187.166 124.443C187.166 108.212 199.87 97.7679 215.587 91.6023L214.016 89.9665C208.777 84.3043 202.228 75.8738 202.228 64.046C202.228 48.3175 215.98 34.6023 234.71 34.6023C253.44 34.6023 265.227 45.801 265.227 58.5096C265.227 74.1122 250.951 81.5361 232.614 87.8275L272.169 128.847C276.884 121.046 279.635 111.735 279.635 102.046C279.635 92.3573 271.645 90.4698 260.25 90.344V88.4566H302.294V90.344C291.03 90.4698 285.66 92.6089 284.088 102.549C282.516 112.741 279.111 122.43 274.265 130.735L277.146 133.755C290.375 147.47 299.412 152.755 308.057 153.635V155.271H280.552C276.098 153.006 272.562 150.238 264.965 142.563"/>
</mask>
<path d="M231.043 86.3175L230.62 85.1945L229.843 85.4872V86.3175H231.043ZM229.078 84.4301L228.173 85.2182L228.195 85.2439L228.219 85.2682L229.078 84.4301ZM231.043 86.4433L230.184 87.2814L232.243 89.3912V86.4433H231.043ZM255.797 133.503L254.93 134.333L254.937 134.339L254.943 134.346L255.797 133.503ZM216.635 92.6089L217.502 91.7789L216.863 91.1119L216.055 91.5587L216.635 92.6089ZM215.587 91.6023L216.026 92.7194L217.695 92.0643L216.453 90.7709L215.587 91.6023ZM214.016 89.9665L213.135 90.7815L213.143 90.7898L213.15 90.7979L214.016 89.9665ZM232.614 87.8275L232.225 86.6924L230.442 87.304L231.75 88.6604L232.614 87.8275ZM272.169 128.847L271.305 129.68L272.389 130.804L273.196 129.468L272.169 128.847ZM260.25 90.344H259.05V91.5308L260.237 91.5439L260.25 90.344ZM260.25 88.4566V87.2566H259.05V88.4566H260.25ZM302.294 88.4566H303.494V87.2566H302.294V88.4566ZM302.294 90.344L302.307 91.5439L303.494 91.5307V90.344H302.294ZM284.088 102.549L282.903 102.362L282.902 102.366L284.088 102.549ZM274.265 130.735L273.228 130.13L272.773 130.91L273.397 131.563L274.265 130.735ZM277.146 133.755L276.278 134.583L276.283 134.588L277.146 133.755ZM308.057 153.635H309.257V152.551L308.178 152.442L308.057 153.635ZM308.057 155.271V156.471H309.257V155.271H308.057ZM280.552 155.271L280.008 156.341L280.264 156.471H280.552V155.271ZM231.465 87.4405C239.813 84.2969 245.136 80.2299 248.345 75.1978C251.547 70.1762 252.544 64.3472 252.544 57.8804H250.144C250.144 64.1223 249.177 69.4291 246.321 73.9074C243.472 78.3754 238.644 82.1726 230.62 85.1945L231.465 87.4405ZM252.544 57.8804C252.544 52.0939 251.057 46.5263 247.839 42.3761C244.59 38.1861 239.65 35.5414 233.007 35.5414V37.9414C238.938 37.9414 243.166 40.2668 245.942 43.8467C248.749 47.4663 250.144 52.4683 250.144 57.8804H252.544ZM233.007 35.5414C227.351 35.5414 222.431 37.5037 218.932 41.2726C215.44 45.0343 213.471 50.478 213.471 57.2513H215.871C215.871 50.9386 217.7 46.1273 220.691 42.9055C223.675 39.691 227.924 37.9414 233.007 37.9414V35.5414ZM213.471 57.2513C213.471 70.8968 222.948 79.2196 228.173 85.2182L229.983 83.642C224.467 77.3095 215.871 69.778 215.871 57.2513H213.471ZM228.219 85.2682L230.184 87.2814L231.901 85.6052L229.937 83.592L228.219 85.2682ZM232.243 86.4433V86.3175H229.843V86.4433H232.243ZM262.915 139.055C260.961 137.177 259.055 135.097 256.652 132.66L254.943 134.346C257.255 136.69 259.278 138.888 261.253 140.786L262.915 139.055ZM256.664 132.673L217.502 91.7789L215.769 93.4389L254.93 134.333L256.664 132.673ZM216.055 91.5587C205.999 97.1165 201.814 107.416 201.814 118.529H204.214C204.214 108 208.149 98.6708 217.216 93.6592L216.055 91.5587ZM201.814 118.529C201.814 128.398 205.403 136.525 211.444 142.18C217.475 147.827 225.87 150.935 235.365 150.935V148.535C226.392 148.535 218.611 145.603 213.084 140.428C207.566 135.262 204.214 127.787 204.214 118.529H201.814ZM235.365 150.935C246.012 150.935 255.58 147.049 262.986 140.84L261.444 139.001C254.442 144.871 245.412 148.535 235.365 148.535V150.935ZM263.735 141.452C254.916 150.047 243.034 155.581 227.899 155.581V157.981C243.675 157.981 256.154 152.191 265.41 143.17L263.735 141.452ZM227.899 155.581C217.761 155.581 207.835 152.711 200.476 147.379C193.144 142.065 188.366 134.322 188.366 124.443H185.966C185.966 135.201 191.207 143.626 199.068 149.322C206.902 155 217.343 157.981 227.899 157.981V155.581ZM188.366 124.443C188.366 108.979 200.444 98.8318 216.026 92.7194L215.149 90.4852C199.296 96.7039 185.966 107.444 185.966 124.443H188.366ZM216.453 90.7709L214.881 89.1351L213.15 90.7979L214.722 92.4337L216.453 90.7709ZM214.896 89.1516C209.706 83.5418 203.428 75.401 203.428 64.046H201.028C201.028 76.3466 207.847 85.0668 213.135 90.7815L214.896 89.1516ZM203.428 64.046C203.428 49.0567 216.564 35.8023 234.71 35.8023V33.4023C215.397 33.4023 201.028 47.5783 201.028 64.046H203.428ZM234.71 35.8023C252.996 35.8023 264.027 46.6635 264.027 58.5096H266.427C266.427 44.9384 253.883 33.4023 234.71 33.4023V35.8023ZM264.027 58.5096C264.027 65.8658 260.694 71.2988 255.057 75.7157C249.366 80.1754 241.378 83.5518 232.225 86.6924L233.004 88.9625C242.187 85.8117 250.506 82.3305 256.537 77.6048C262.623 72.8362 266.427 66.756 266.427 58.5096H264.027ZM231.75 88.6604L271.305 129.68L273.033 128.014L233.478 86.9945L231.75 88.6604ZM273.196 129.468C278.021 121.485 280.835 111.96 280.835 102.046H278.435C278.435 111.51 275.747 120.607 271.142 128.227L273.196 129.468ZM280.835 102.046C280.835 99.4578 280.3 97.2974 279.237 95.5293C278.171 93.7571 276.626 92.4656 274.749 91.5341C271.06 89.7025 265.966 89.207 260.264 89.1441L260.237 91.5439C265.93 91.6068 270.528 92.118 273.682 93.6837C275.227 94.4509 276.392 95.4558 277.18 96.7663C277.971 98.081 278.435 99.7899 278.435 102.046H280.835ZM261.45 90.344V88.4566H259.05V90.344H261.45ZM260.25 89.6566H302.294V87.2566H260.25V89.6566ZM301.094 88.4566V90.344H303.494V88.4566H301.094ZM302.28 89.1441C296.637 89.2071 292.183 89.7636 288.933 91.741C285.577 93.7827 283.72 97.1907 282.903 102.362L285.273 102.737C286.027 97.9675 287.642 95.3358 290.18 93.7913C292.824 92.1827 296.686 91.6067 302.307 91.5439L302.28 89.1441ZM282.902 102.366C281.352 112.417 277.995 121.962 273.228 130.13L275.301 131.34C280.227 122.899 283.68 113.066 285.274 102.732L282.902 102.366ZM273.397 131.563L276.278 134.583L278.014 132.926L275.133 129.906L273.397 131.563ZM276.283 134.588C289.559 148.353 298.851 153.904 307.935 154.829L308.178 152.442C299.974 151.606 291.19 146.587 278.01 132.922L276.283 134.588ZM306.857 153.635V155.271H309.257V153.635H306.857ZM308.057 154.071H280.552V156.471H308.057V154.071ZM281.096 154.202C276.818 152.026 273.39 149.369 265.818 141.718L264.113 143.407C271.734 151.107 275.379 153.987 280.008 156.341L281.096 154.202Z" fill="#8B3C50" mask="url(#path-4-inside-2_1_1347)"/>
<path d="M188.423 175.249H305.102V191.916H188.423V175.249Z" stroke="#8B3C50" stroke-width="1.2"/>
</g>
<defs>
<clipPath id="clip0_1_1347">
<rect width="496.793" height="209" fill="white"/>
</clipPath>
</defs>
</svg>
